<?xml version="1.0" encoding="UTF-8" standalone="no"?>
<!-- Created with Inkscape (http://www.inkscape.org/) -->

<svg
   width="210mm"
   height="297mm"
   viewBox="0 0 210 297"
   version="1.1"
   id="svg1"
   xml:space="preserve"
   inkscape:version="1.3 (0e150ed6c4, 2023-07-21)"
   sodipodi:docname="drawing.svg"
   xmlns:inkscape="http://www.inkscape.org/namespaces/inkscape"
   xmlns:sodipodi="http://sodipodi.sourceforge.net/DTD/sodipodi-0.dtd"
   xmlns="http://www.w3.org/2000/svg"
   xmlns:svg="http://www.w3.org/2000/svg"><sodipodi:namedview
     id="namedview1"
     pagecolor="#ffffff"
     bordercolor="#000000"
     borderopacity="0.25"
     inkscape:showpageshadow="2"
     inkscape:pageopacity="0.0"
     inkscape:pagecheckerboard="0"
     inkscape:deskcolor="#d1d1d1"
     inkscape:document-units="mm"
     inkscape:zoom="0.16903935"
     inkscape:cx="-653.69395"
     inkscape:cy="842.99899"
     inkscape:window-width="1920"
     inkscape:window-height="991"
     inkscape:window-x="-9"
     inkscape:window-y="-9"
     inkscape:window-maximized="1"
     inkscape:current-layer="layer1" /><defs
     id="defs1" /><g
     inkscape:label="Layer 1"
     inkscape:groupmode="layer"
     id="layer1"><path
       d="M 11.84295,30.762475 V 48.40127 h 0.112496 c 0.540007,3.730662 3.726158,6.61457 7.604572,6.61457 2.588488,0 4.572816,-0.919417 5.891322,-2.588499 a 8.7973763,8.7973763 0 0 0 12.497138,-0.03333 c 1.32516,1.680082 3.316154,2.61941 5.864904,2.61941 4.255408,0 7.717068,-3.46166 7.717068,-7.717068 V 30.759976 c 0,-10.940479 -8.901067,-19.843708 -19.843708,-19.843708 -10.942725,0 -19.843708,8.903229 -19.843708,19.843708 z m 13.229139,2.204829 c -2.431994,0 -4.409741,-1.977748 -4.409741,-4.409741 0,-2.431909 1.977747,-4.409657 4.409741,-4.409657 2.431908,0 4.409656,1.977748 4.409656,4.409657 0,2.431993 -1.977748,4.409741 -4.409656,4.409741 z m 13.229138,-8.819398 c 2.431909,0 4.409657,1.977748 4.409657,4.409657 0,2.431993 -1.977748,4.409741 -4.409657,4.409741 -2.431993,0 -4.409741,-1.977748 -4.409741,-4.409741 0,-2.431909 1.977748,-4.409657 4.409741,-4.409657 z"
       id="path1"
       style="fill:#000000;stroke-width:2.20485" /><g
       id="g1"
       transform="translate(-88.542066,495.83557)"
       inkscape:export-filename="..\..\..\OneDrive\Escritorio\splash-logo.png"
       inkscape:export-xdpi="96"
       inkscape:export-ydpi="96"><rect
         style="fill:none;stroke:#1a1a1a;stroke-width:0"
         id="rect1"
         width="304.79999"
         height="304.79999"
         x="338.6734"
         y="-491.40848"
         ry="7.5570254" /><path
         d="m 444.77131,-344.15019 v 41.15719 h 0.2625 c 1.26,8.70486 8.69438,15.43399 17.74401,15.43399 6.03979,0 10.6699,-2.14529 13.7464,-6.03984 a 20.527213,20.527213 0 0 0 29.16,-0.0777 c 3.09204,3.92021 7.73768,6.11196 13.68476,6.11196 9.92929,0 18.0065,-8.07721 18.0065,-18.00647 v -38.5849 c 0,-25.52779 -20.76916,-46.30199 -46.302,-46.30199 -25.533,0 -46.30196,20.7742 -46.30196,46.30199 z m 30.868,5.14459 c -5.67465,0 -10.2894,-4.61475 -10.2894,-10.28938 0,-5.67445 4.61475,-10.2892 10.2894,-10.2892 5.67445,0 10.2892,4.61475 10.2892,10.2892 0,5.67463 -4.61475,10.28938 -10.2892,10.28938 z m 30.86799,-20.57858 c 5.67445,0 10.28921,4.61475 10.28921,10.2892 0,5.67463 -4.61476,10.28938 -10.28921,10.28938 -5.67464,0 -10.28939,-4.61475 -10.28939,-10.28938 0,-5.67445 4.61475,-10.2892 10.28939,-10.2892 z"
         id="path1-2"
         style="fill:#000000;stroke-width:5.14465" /></g><text
       xml:space="preserve"
       style="font-size:19.3724px;font-family:'Bauhaus 93';-inkscape-font-specification:'Bauhaus 93, ';fill:#000000;stroke:#1a1a1a;stroke-width:0"
       x="64.393066"
       y="37.875141"
       id="text1"><tspan
         sodipodi:role="line"
         id="tspan1"
         style="font-style:normal;font-variant:normal;font-weight:normal;font-stretch:normal;font-family:Silkscreen;-inkscape-font-specification:Silkscreen;stroke-width:0"
         x="64.393066"
         y="37.875141">GhostMark</tspan></text><g
       id="g2"
       inkscape:export-filename="..\..\..\OneDrive\Escritorio\text-logo.png"
       inkscape:export-xdpi="96"
       inkscape:export-ydpi="96"><rect
         style="fill:none;stroke:#1a1a1a;stroke-width:0"
         id="rect2"
         width="502.70834"
         height="158.75"
         x="-141.78336"
         y="-194.75638"
         ry="0" /><text
         xml:space="preserve"
         style="font-size:70.5225px;font-family:'Bauhaus 93';-inkscape-font-specification:'Bauhaus 93, ';fill:#000000;stroke:#1a1a1a;stroke-width:0"
         x="-128.44263"
         y="-93.343094"
         id="text1-1"><tspan
           sodipodi:role="line"
           id="tspan1-2"
           style="font-style:normal;font-variant:normal;font-weight:normal;font-stretch:normal;font-family:Silkscreen;-inkscape-font-specification:Silkscreen;stroke-width:0"
           x="-128.44263"
           y="-93.343094">GhostMark</tspan></text></g><g
       id="g4"
       transform="translate(216.61344,79.845173)"
       inkscape:export-filename="..\..\..\OneDrive\Escritorio\icons.png"
       inkscape:export-xdpi="96"
       inkscape:export-ydpi="96"><rect
         style="fill:#ffffff;stroke:#1a1a1a;stroke-width:0"
         id="rect4-5"
         width="135.46666"
         height="135.46666"
         x="-394.3819"
         y="-69.048683" /><path
         d="M -356.41259,-4.6205469 V 21.836236 h 0.16872 c 0.80998,5.595695 5.58895,9.921326 11.40625,9.921326 3.88253,0 6.85887,-1.379051 8.83653,-3.882541 a 13.195362,13.195362 0 0 0 18.74469,-0.04999 c 1.98763,2.519989 4.97398,3.928906 8.7969,3.928906 6.38278,0 11.57498,-5.192214 11.57498,-11.574985 V -4.6242939 c 0,-16.4098431 -13.35089,-29.7639751 -29.76397,-29.7639751 -16.41323,0 -29.76398,13.354132 -29.76398,29.7639751 z m 19.84264,3.3070665 c -3.64779,0 -6.61426,-2.9664635 -6.61426,-6.6142585 0,-3.6476701 2.96647,-6.6141331 6.61426,-6.6141331 3.64767,0 6.61413,2.966463 6.61413,6.6141331 0,3.647795 -2.96646,6.6142585 -6.61413,6.6142585 z m 19.84265,-13.2283916 c 3.64767,0 6.61413,2.966463 6.61413,6.6141331 0,3.647795 -2.96646,6.6142585 -6.61413,6.6142585 -3.64779,0 -6.61426,-2.9664635 -6.61426,-6.6142585 0,-3.6476701 2.96647,-6.6141331 6.61426,-6.6141331 z"
         id="path1-9"
         style="fill:#000000;stroke-width:3.3071" /></g><g
       id="g5"
       transform="translate(427.13518,194.10605)"
       inkscape:export-filename="..\..\..\OneDrive\Escritorio\g5.png"
       inkscape:export-xdpi="96"
       inkscape:export-ydpi="96"><rect
         style="fill:none;stroke:#1a1a1a;stroke-width:0"
         id="rect4-5-6"
         width="135.46666"
         height="135.46666"
         x="-604.72308"
         y="-20.807426" /><path
         d="m -566.75379,43.62071 v 26.456783 h 0.16872 c 0.80998,5.595695 5.58895,9.921326 11.40625,9.921326 3.88253,0 6.85887,-1.379051 8.83653,-3.882541 a 13.195362,13.195362 0 0 0 18.74469,-0.04999 c 1.98763,2.519989 4.97398,3.928906 8.7969,3.928906 6.38278,0 11.57498,-5.192214 11.57498,-11.574985 V 43.616963 c 0,-16.409843 -13.35089,-29.763975 -29.76397,-29.763975 -16.41323,0 -29.76398,13.354132 -29.76398,29.763975 z m 19.84264,3.307067 c -3.64779,0 -6.61426,-2.966464 -6.61426,-6.614259 0,-3.64767 2.96647,-6.614133 6.61426,-6.614133 3.64767,0 6.61413,2.966463 6.61413,6.614133 0,3.647795 -2.96646,6.614259 -6.61413,6.614259 z m 19.84265,-13.228392 c 3.64767,0 6.61413,2.966463 6.61413,6.614133 0,3.647795 -2.96646,6.614259 -6.61413,6.614259 -3.64779,0 -6.61426,-2.966464 -6.61426,-6.614259 0,-3.64767 2.96647,-6.614133 6.61426,-6.614133 z"
         id="path1-9-6"
         style="fill:#000000;stroke-width:3.3071" /></g></g></svg>
